<?xml version="1.0" encoding="utf-8"?>
<!-- Generator: Adobe Illustrator 21.1.0, SVG Export Plug-In . SVG Version: 6.00 Build 0)  -->
<svg version="1.1" id="Ebene_1" xmlns="http://www.w3.org/2000/svg" xmlns:xlink="http://www.w3.org/1999/xlink" x="0px" y="0px"
	 viewBox="0 0 252.3 124.7" style="enable-background:new 0 0 252.3 124.7;" xml:space="preserve">
<style type="text/css">
	.st0{fill:#333;}
	.st1{fill-rule:evenodd;clip-rule:evenodd;fill:#333;}
</style>
<polygon class="st0" points="78.9,50.4 66,50.4 65.3,54 69.7,54 67.1,67.6 71.3,67.6 73.8,54 78.3,54 78.9,50.4 "/>
<polygon class="st0" points="92.5,50.4 82.1,50.4 78.8,67.6 89.2,67.6 89.8,64.2 83.7,64.2 84.3,60.4 90.3,60.4 90.8,57.2 85,57.2
	85.6,53.7 91.8,53.7 92.5,50.4 "/>
<path class="st0" d="M108.4,50.6c-1-0.3-2.3-0.4-3.7-0.4c-7.2,0-10.8,5.6-10.8,11.3c0,3.9,2.2,6.4,7.3,6.4c1.4,0,2.9-0.3,4.2-0.7
	l0.4-3.8c-1.1,0.4-2.2,0.6-3.6,0.6c-2.5,0-3.8-1.4-3.8-3.4c0-2.7,1.7-6.9,5.9-6.9c0.9,0,2,0.2,3,0.6L108.4,50.6L108.4,50.6z"/>
<polygon class="st0" points="127.9,50.4 123.7,50.4 122.5,57 115.3,57 116.6,50.4 112.4,50.4 109.1,67.6 113.3,67.6 114.6,60.6
	121.8,60.6 120.5,67.6 124.6,67.6 127.9,50.4 "/>
<path class="st1" d="M147.3,56.6c0-4.1-2.6-6.3-7.9-6.3c-1.8,0-4.9,0.1-6.4,0.1l-3.3,17.1c1.6,0.1,3.4,0.1,6.2,0.1
	C142.8,67.7,147.3,63.1,147.3,56.6L147.3,56.6z M142.7,57.3c0,2.3-1.3,6.8-6.5,6.8c-0.6,0-1.4,0-1.7-0.1l1.9-10.1
	c0.6-0.1,1.4-0.1,2.3-0.1C141.7,53.8,142.7,55.3,142.7,57.3L142.7,57.3z"/>
<polygon class="st0" points="156.6,50.4 152.4,50.4 149.1,67.6 153.3,67.6 156.6,50.4 "/>
<path class="st0" d="M176.5,50.4H172l-4.4,8c-0.7,1.3-1.5,3-2.2,4.6h0c-0.1-1.5-0.3-3.1-0.6-4.6l-1.4-8h-4.3l3,17.2h4.9L176.5,50.4
	L176.5,50.4z"/>
<polygon class="st0" points="183.2,50.4 179.1,50.4 175.8,67.6 180,67.6 183.2,50.4 "/>
<path class="st0" d="M196.8,50.3c-0.9-0.1-1.9-0.3-3.4-0.3c-4.9,0-7.3,3-7.3,6.2c0,4.1,4.9,3.7,4.9,6c0,1.1-0.9,2.1-2.7,2.1
	c-1.2,0-2.2-0.2-3.1-0.6l-0.8,3.7c0.9,0.2,2,0.4,3.6,0.4c4.5,0,7.7-2.8,7.7-6.4c0-4.1-5-4-5-6.1c0-1.3,1-2,2.6-2
	c1,0,1.8,0.2,2.7,0.4L196.8,50.3L196.8,50.3z"/>
<polygon class="st0" points="206.2,50.4 202,50.4 198.7,67.6 202.9,67.6 206.2,50.4 "/>
<path class="st1" d="M225.7,56.8c0-4.2-2.5-6.7-7-6.7c-6.4,0-10.7,5.3-10.7,11.2c0,4.1,2.3,6.5,7.1,6.5
	C220.8,67.9,225.7,63.1,225.7,56.8L225.7,56.8z M221.3,57.3c0,3.2-2,6.8-5.7,6.8c-2.2,0-3.2-1.3-3.2-3.4c0-4.4,2.7-6.9,5.6-6.9
	C220.2,53.8,221.3,55.2,221.3,57.3L221.3,57.3z"/>
<path class="st0" d="M247,50.4h-4l-1.4,7.3c-0.3,1.8-0.6,3.2-0.7,4.2h0c-0.3-1.1-0.8-2.2-1.2-3.3l-3.4-8.3h-5.5l-3.3,17.2h4l1.6-8.6
	c0.3-1.3,0.4-2.2,0.5-3h0c0.2,1,0.7,2.2,1,3.1l3.5,8.5h5.5L247,50.4L247,50.4z"/>
<g>
	<path class="st0" d="M79.5,43.2c0.3,1.2,0.3,2.4,0.1,3.6c5.9-6.4,8.6-11.9,6.7-14.9c-2.5-4.1-12.9-2.7-26.2,2.9
		C70.6,35.2,78,38.1,79.5,43.2z"/>
	<path class="st0" d="M5.7,75c-1.7,3.1-2.2,5.7-1.1,7.4c3.8,6.2,25.2-0.1,47.8-14.1c0.3-0.2,0.5-0.3,0.8-0.5
		c-3.7,1.5-7.7,2.9-11.8,4.1C27.6,75.8,14.6,76.8,5.7,75z"/>
	<path class="st0" d="M58.2,46.2c1.9,7.2-10.7,17.2-28.2,22.5c-8.2,2.5-16,3.4-22.1,3c-0.3,0.4-0.6,0.8-0.8,1.1
		c7,0.7,16.3-0.2,26.1-3.1C52.4,64,66.3,53.1,64.2,45.2c-1-3.7-5.4-6.1-11.9-6.9c-1.1,0.6-2.3,1.1-3.4,1.8
		C53.9,41,57.4,43.1,58.2,46.2z"/>
	<path class="st0" d="M9.6,69.5c4.7-0.2,10.1-1.1,15.7-2.9c14.8-4.7,25.5-13.4,23.7-19.5c-0.6-2-2.4-3.4-5.1-4.3
		c-1.8,1-3.6,2.1-5.5,3.2C25.9,53.8,15.6,62.4,9.6,69.5z"/>
</g>
</svg>
